<svg xmlns="http://www.w3.org/2000/svg" viewBox="0 0 52 52" fill="none">
  <path d="M23.1516 45.525L23.8096 42.611L24.5616 38.851L25.1726 35.843L25.7366 32.13L26.0656 30.908L26.0186 30.814L25.7836 30.861L22.9636 34.715L18.6866 40.496L15.3026 44.068L14.5036 44.397L13.0936 43.692L13.2346 42.376L14.0336 41.248L18.6866 35.279L21.5066 31.566L23.3396 29.451L23.2926 29.169H23.1986L10.7906 37.253L8.58158 37.535L7.59458 36.642L7.73558 35.185L8.20558 34.715L11.9186 32.13L21.1776 26.96L21.3186 26.49L21.1776 26.255H20.7076L19.1566 26.161L13.8926 26.02L9.33358 25.832L4.86858 25.597L3.74058 25.362L2.70658 23.952L2.80058 23.247L3.74058 22.636L5.10358 22.73L8.06458 22.965L12.5296 23.247L15.7726 23.435L20.5666 23.952H21.3186L21.4126 23.623L21.1776 23.435L20.9896 23.247L16.3366 20.145L11.3546 16.855L8.72258 14.928L7.31258 13.941L6.60758 13.048L6.32558 11.074L7.59458 9.664L9.33358 9.805L9.75658 9.899L11.4956 11.262L15.2086 14.129L20.0966 17.748L20.8016 18.312L21.1306 18.124V17.983L20.8016 17.466L18.1696 12.672L15.3496 7.784L14.0806 5.763L13.7516 4.541C13.6263 4.118 13.5636 3.648 13.5636 3.131L15.0206 1.157L15.8196 0.874997L17.7936 1.157L18.5926 1.862L19.8146 4.635L21.7416 9.006L24.7966 14.928L25.6896 16.714L26.1596 18.312L26.3476 18.829H26.6766V18.547L26.9116 15.163L27.3816 11.074L27.8516 5.81L27.9926 4.306L28.7446 2.52L30.2016 1.58L31.3296 2.097L32.2696 3.46L32.1286 4.306L31.6116 7.925L30.4836 13.612L29.7786 17.466H30.2016L30.6716 16.949L32.5986 14.411L35.8416 10.369L37.2516 8.771L38.9436 6.985L40.0246 6.139H42.0456L43.5026 8.348L42.8446 10.651L40.7766 13.283L39.0376 15.492L36.5466 18.829L35.0426 21.508L35.1836 21.696H35.5126L41.1056 20.474L44.1606 19.957L47.7326 19.346L49.3776 20.098L49.5656 20.85L48.9076 22.448L45.0536 23.388L40.5416 24.281L33.8206 25.879L33.7266 25.926L33.8206 26.067L36.8286 26.349L38.1446 26.443H41.3406L47.2626 26.866L48.8136 27.9L49.7066 29.122L49.5656 30.109L47.1686 31.284L43.9726 30.532L36.4526 28.746L33.9146 28.135H33.5386V28.323L35.7006 30.438L39.6016 33.963L44.5366 38.522L44.7716 39.65L44.1606 40.59L43.5026 40.496L39.1786 37.206L37.4866 35.749L33.7266 32.6H33.4916V32.929L34.3376 34.198L38.9436 41.107L39.1786 43.222L38.8496 43.88L37.6276 44.303L36.3586 44.068L33.6326 40.308L30.8596 36.031L28.6036 32.224L28.3686 32.412L27.0056 46.606L26.3946 47.311L24.9846 47.875L23.8096 46.982L23.1516 45.525Z" fill="#D97757" />
</svg>
